<?xml version="1.0" encoding="utf-8"?>
<!-- Generator: Adobe Illustrator 19.2.0, SVG Export Plug-In . SVG Version: 6.00 Build 0)  -->
<svg version="1.1" id="team_logos" xmlns="http://www.w3.org/2000/svg" xmlns:xlink="http://www.w3.org/1999/xlink" x="0px" y="0px"
	 viewBox="0 0 200 200" style="enable-background:new 0 0 200 200;" xml:space="preserve">
<style type="text/css">
	.st0{fill:#FFFFFF;}
	.st1{fill:none;}
	.st2{display:none;fill:none;}
</style>
<g id="redskins">
	<g>
		<g>
			<g>
				<g>
					<path d="M156.1,69.3c1.2-0.4,1.7,0.2,3.1,1.1c0.2,0.2,0.4,0.6,0.1,0.8c-0.1,0.1-0.4,0.1-0.4,0c-1.1-1.1-1.5-1.1-2.8-1.3
						C156,69.8,155.8,69.4,156.1,69.3z"/>
					<path d="M149.1,81.4c-0.2,0.5-0.4,1-0.6,1.5c-0.2,0.5-0.1,1.2-0.5,1.7c-0.2,0.2-0.6,0.1-0.7-0.1c-0.2-0.9-0.1-1.9,0.3-2.8
						c0.2-0.4,0.8-0.7,1.3-0.5C149,81.3,149.1,81.3,149.1,81.4C149.1,81.4,149.1,81.4,149.1,81.4z"/>
					<path d="M137.3,75.1c-0.4-0.1-0.6-0.5-0.5-0.9c0.1,0,0-0.2,0.1-0.1c0.8,0.1,1.6,0.4,2.4,0.4c0.9,0,1.9-0.2,2.7-0.6
						c1.1-0.5,2-1,3-1.7c0.5-0.3,1.1-0.5,1.7-0.6c0.9-0.2,0.8-0.7,1.5-1.1c1-0.6,0.9-1,1.4-0.8c0.2,0.1-0.2,0.4-0.3,0.6
						c-0.4,0.3-0.8,0.7-1.2,1.2c-0.1,0.1-0.6,0.7-0.7,0.7c-1.1,0.8-1.4,1.5-2.2,2.5c-0.5,0.6-0.6,1.3-0.9,2
						c-0.2,0.4-0.3,0.8-0.5,1.2c-0.1,0.2-0.5,0.1-0.6,0.2c-0.7,0.7-1.3,1.3-1.8,2.1c-0.1,0.1-0.4,0.1-0.4,0.1
						c-0.4-0.8-1.1-1.5-2.1-1.5c-0.2,0-0.4-0.4-0.4-0.8c0-0.1-0.1-0.2-0.2-0.3c-0.2,0-0.2-0.2-0.4-0.2c-0.2,0-0.3-0.3-0.4-0.4
						C137.3,76.5,137.4,75.8,137.3,75.1C137.2,75.1,137.3,75.1,137.3,75.1z"/>
					<polygon points="48.9,51.8 54.2,55.3 54.8,53.8 51.6,51.7 					"/>
					<path class="st0" d="M47.8,55.9c-2.3,3.2-3.9,8.3-4.7,11.9c1-0.5,1.1-0.5,2.1-0.8C45.5,65.3,48.2,55.4,47.8,55.9z"/>
					<path d="M25.1,134.2c0,0.2,0.4,0.1,0.2,0.3c0.4,0,0.8,0.1,1.2,0c0.2-0.1,0.3-0.4,0.4-0.5c0.1-0.6,0.4-1.3-0.1-1.7
						c-0.5-0.4-0.4-0.9-0.7-1.2c-0.1-0.1-0.5-0.2-0.7-0.4c-0.2-0.2-0.4,0.2-0.4,0.4c0,0.4,0.3,0.9,0.3,1.4
						C25.2,133.1,24.9,133.3,25.1,134.2z"/>
					<path d="M20.2,127.9c0-0.8-0.3-1.9,0.9-1.6c0.4,0.1,0.5,0.7,0.5,0.9c0,0.7,0.2,1.3,0.5,1.9c0.2,0.4-0.1,0.7-0.3,0.9
						c-0.5,0.7-1.4,1.1-1.9,0.4c-0.3-0.4-0.7-1-0.4-1.6C19.5,128.5,19.7,128.2,20.2,127.9"/>
					<path d="M21.3,136.1c-0.6-0.9-0.3-1.7,0.4-2.3c0.5-0.3,1-0.1,1.1,0.3c0.3,0.8,0.6,1.5,0.8,2.3c0.3,0.8-0.8,1.6-1.5,1.3
						C21.6,137.5,21.7,136.6,21.3,136.1z"/>
					<path d="M22,139.4c-0.3-0.1-0.3,0.2-0.5,0.3c-0.3,0.3-0.3,0.8-0.6,1.2c-0.5,0.7-0.4,1.6-0.2,2.3c0.1,0.4,0.8,1.1,1.4,1
						c0.9-0.1,1.5-1.7,0.9-2.1c-0.9-0.5-0.6-1.8-0.9-2.6c0-0.1-0.2,0-0.4,0"/>
					<path d="M27.6,137.7c-0.2-0.3-0.2-0.7,0-0.9c0.2-0.2,0.7-0.1,0.9,0.1c0.1,0.1,0.3,0.2,0.4,0.3c0.7,0.6,1.2,1.4,0.8,2.3
						c-0.1,0.3-0.5,0.5-0.9,0.3c-0.2-0.2-0.6-0.2-0.7-0.5C27.9,138.7,28,138.1,27.6,137.7z"/>
					<path d="M19.5,132.1c-0.1-0.4-0.5-0.2-0.7,0.1c-0.5,0.8-0.7,1.5-0.8,2.6c0.1,0.6,1,0.7,1.5,0.5c1-0.6,0.3-3,0.2-2.7
						C19.7,132.4,19.5,132.1,19.5,132.1z"/>
					<path d="M38.6,138.9c-0.2-0.2-0.5,0-0.6,0.2c-0.1,0.7-0.1,2,1,1.8c0.4-0.1,0.6-0.5,0.5-0.9C39.5,139.5,39,139.2,38.6,138.9z"/>
					<path d="M41.2,141.4c-0.3-0.3-0.7-0.2-0.9-0.1c-0.4,0.3-0.5,0.9-0.4,1.4c0.2,0.5,0.3,1.1,0.7,1.5c0.3,0.3,0.8,0.6,0.9,0.4
						c0.3-0.5,0.6-1.1,0.5-1.7C41.8,142.3,41.6,141.8,41.2,141.4z"/>
					<path d="M51,140.6c-0.2,0-0.4,0-0.5,0.2c-0.4,0.6,0,1.3,0.5,1.6c0.5,0.3,1.2-0.6,0.8-1.1c-0.3-0.3-0.7-0.6-1.1-0.6"/>
					<path d="M46.3,146.9c-0.2-0.1-0.5-0.7-0.4-1.2c0.1-0.4,0.6-0.5,0.9-0.5c0.4,0.1,0.7,0.4,0.9,0.7c0.6,0.8,0.8,2.1,0,2.7
						c-0.3,0.3-0.9,0.2-1.2-0.2c-0.3-0.5-0.1-0.9-0.3-1.4C46.4,147.1,46.2,146.9,46.3,146.9z"/>
					<path d="M52,147.3c-0.6-0.4-0.3-1.3-0.9-1.7c-0.3-0.2-0.8-0.3-1.1,0c-0.3,0.3-0.3,0.7-0.4,1.1c0,0.2,0.1,0.5,0.2,0.7
						c0.5,0.9,1.5,1,2.4,1.5c0.1,0.1,0.3-0.2,0.4-0.3C52.8,148.1,52.4,147.6,52,147.3z"/>
					<path d="M42.9,146.5c-0.3-0.4-0.8-0.2-1.1,0c-0.1,0.1-0.2,0.2-0.2,0.4c0,0.9-0.3,1.8,0,2.7c0.2,0.5,0.7,1.1,1.2,0.9
						c0.4-0.2,0.7-0.7,0.5-1.2C43.2,148.3,43.5,147.2,42.9,146.5z"/>
					<path d="M46.6,135.7c-0.2-0.4-0.6-0.7-0.3-1.2c0.1-0.1,0.3-0.1,0.5-0.1c0.5-0.1,1.1-0.1,1.4,0.3c0.3,0.3,0.4,0.6,0.6,0.9
						c0.2,0.4,0.3,0.8,0.4,1.2c0.2,0.4,0,0.9-0.4,1.1c-0.4,0.2-0.5,0.4-1.1,0.2c-0.2-0.1-0.3-0.6-0.4-0.7c-0.1-0.2-0.1-0.9-0.3-1.1
						C46.7,136,46.7,136,46.6,135.7z"/>
					<path d="M46.2,138c-0.2-0.2-0.4-0.2-0.6-0.2c-0.1,0-0.3,0-0.3,0.2c0.1,0.8-0.9,1.2-1.2,1.9c-0.3,0.7,0.3,1.3,0.8,1.8
						c0.4,0.4,1,0.1,1.5,0c0.8-0.2,0.9-1.4,0.7-2.1C47,139,46.6,138.5,46.2,138z"/>
					<path d="M60.7,35.7l-5.8,4.6l-1.3-6.8l-3.1,9.3L49,41.6l-2.2,5h-1.6v5.4h10.1l2.2-5.6H56L60.7,35.7z M48.7,46.5l1-2.4l2.7,2.4
						H48.7z M51.9,43.9l1.3-4.5l0.9,6.4L51.9,43.9z M55.2,42.1l2.1-1.9l-1.8,3.5L55.2,42.1z"/>
					<path d="M59.7,163.8c0.3,0,1.2,1.4,1.8,2c0,0,0.3,1.6,2.3,1.6c-1-1.9-1.4-3.3-1.6-4.7c-0.4-2.9-0.1-6.2-0.1-6.2l-1.5-1l1.1-1.2
						l-1-7.1c-0.7-0.7-0.7-0.3-1.8-2.3c0.8,1,1.9,1,2.3,1c-1.2-2.6-1.2-3.7-1.6-4.9c-0.2-1-0.7-4-1-6.7c-0.5-3.7-0.8-12.1-0.8-20.3
						c-0.8-1.1-1.1-1.1-1.5-2.5c0.5-0.1,0.3-0.2,2.1,1.2c0.3-1.4,0.3-3.2,0.3-3.2c-0.1-2.9,0.4-5.1-0.4-5.4c-0.2-1.9-0.4-8-0.4-8
						c0.2-2.5,0-4.9-0.3-7.5c-0.8-1.6-1-2.4-1.9-3.4c1.8,0.5,1.5,0.3,1.5,0.3c0.5-8.8-2.6-12.7-6.8-16.7C50,63.5,52.3,54,52.3,54
						l-2.9-3l-3.4,0.6c-12.3,23.3-27,49.3-30.5,77.5c-1.4,7.9-0.5,28.6,1.4,37.6c0.8,2.9,1,8,1,8c-0.1,1.4-0.8,3.6-1.6,5.5
						c1.2-0.8,4.7-4.4,5.8-9.1c0.3,1,0.8,0.4,1,2.2c0.5-1.5,0.7-2.5,2.2-4.6c1.2-1.6,0.8-4.5,0.8-6.5c0,0,1,1.3,1.3,3
						c1.4-1.9,1.9-3.7,2-5.2c0.3-2.1,0.3-2.9,0.4-5.4c0-1.6,0.1-2,0.5-3.8c0.1-0.6,0.6-0.1,0.8,0.5c0.4,0.9,0.3,2.3,0.4,4
						c0.5-0.8,1.4-1.8,1.4-4h0.3c0.8,0.8,1.2,4.2,1.4,5.7c0.1,1,0,2.4-0.3,3.6c0,0,0,0.6,0.4,0.3c0.8-0.2,1.6-1.2,2.1-2.5
						c0.6,3.8,1.2,6.7,1.4,7.6c0.9,5.7,4.7,11,6.4,13.4c1.3,1.6,1.4,2.1,1.9,4c0.7-1.6,0.5-2.3,0.7-4c0.8,1.4,3.2,3.6,4.3,4.8
						c1.6,1.6,2.3,4.3,4.7,6.3c0.1-2.7,0.5-4.2,1.9-7c0.7-1.6,0.8-2.7,1-6.2c1,0.6,1.1,1.8,2.5,3.1c1.2-6.2,1.1-9.5-0.3-12.8
						C60.6,166.6,59.5,165.8,59.7,163.8z M58.9,155.5L58.9,155.5L58.9,155.5C58.9,155.5,58.9,155.5,58.9,155.5z M59.5,149.7
						c0,0.1,0.1,0.3,0.1,0.4C59.5,149.9,59.5,149.7,59.5,149.7z M59,168.3c0.1,0.1,0.1,0.3,0.2,0.4c0,0.1,0.1,0.2,0.1,0.4
						C59.2,168.8,59.1,168.5,59,168.3z M60.2,158c0-0.3,0-0.6,0-0.7C60.2,157.5,60.2,157.7,60.2,158z M60.2,157.1
						C60.2,157.1,60.2,157.1,60.2,157.1L60.2,157.1C60.2,157.1,60.2,157.1,60.2,157.1z M49.7,53.1l1.2,0.8c0,0-2.1,9.1-1.7,15.5
						c2.9,2.5,6,5.8,6.1,12.8c-0.2,0.1-0.3,0-0.5-0.1c-0.8-1.1-3-1.4-4.7-4.1c0.2,1.7,5.1,8.4,5.4,9.7c0.1,4.2,0.7,10.3,0.3,11.5
						c-1.2-0.6-1.8-1.9-1.6-1.1c0.9,2.3,1.6,4.3,2.7,6c0,0,0.1,5.9-0.1,5.1h-0.3c-1-0.7-1.9-1.5-2.6-2.2c-0.4-0.2-0.5-0.8-1.3-1.6
						c-1.2-1.1-1.9-2.1-2.4-2.3c-1.3-0.9-2.2-1.2-3-1.5c-0.2,0-0.7-0.1-0.7-0.1s2.5,2.1,4,4.5c1.9,2.3,2.7,3.6,3.3,5
						c0.7,1.4,1.8,2.7,2.6,3.9c0,1.9-0.1,8.2,0,9.2l-0.5-0.4c-1.2-0.8-2.6-2.4-3.7-4.6c-0.6,3.2,2.7,6.9,4.3,8.1
						c0.5,5.9,0.5,8.6,1.5,14.8l-0.1,0.5c-1.4-1-2.8-2.5-4.5-4.9c-0.1,2.4,2.3,5.6,4.8,8.6c0.2,0.2,0.2,0.4,0.3,0.7
						c-0.3-0.4-1.3,0.1-1.6-0.3c-0.4-0.4-0.8-0.7-0.8-1.2c-0.3,0.6-0.1,1.3,0.2,1.9c0.2,0.3,0.6,0.5,0.8,0.8
						c0.3,0.3,0.4,0.8,0.6,1.1c0.2,0.5-0.3,0.8-0.6,0.9c-1,0.2-1-1.3-1.3-2c-0.2-0.5-0.9-0.7-1.2-1.2c-0.1-0.1-0.2-0.2-0.3-0.3
						c-0.3-0.5-0.9-0.9-1.1-1.4c0,0.2,0,0.5,0.1,0.7c0.5,1.5,1.2,2.9,1.9,4.3c0.2,0.4,0.4,0.8,0.5,1.2c0.1,0.4,0,0.8-0.2,1
						c-0.2,0.2-0.7-0.3-0.8-0.1c-0.4,0.6,0.2,1.4,0.5,2c0.2,0.4,0.6,0.9,0.4,1.4c0,0.1-0.2,0.2-0.3,0.3c-0.5,0.1-0.9-0.2-1.2-0.5
						c-1-1.1-1.9-2.1-2.7-3.4c-0.3-0.5-0.1-1.1-0.5-1.6c-0.2-0.3-0.6-0.7-0.9-0.4c-0.1,0.1-0.2,0.2-0.3,0.4
						c-0.1,0.6-0.2,1.2-0.6,1.7c-0.1,0.1-0.3,0.3-0.4,0.4c-0.5,1-0.6,2.1-0.8,3.2c0,0.3-0.1,0.6-0.4,0.7c-0.3,0.1-0.5-0.2-0.6-0.4
						c0-0.1-0.1-0.1-0.1-0.2c-4.4-16.1-6-33.4-5.4-50.9C41.8,88.5,44.3,75.3,49.7,53.1z M45.5,176.6
						C45.5,176.6,45.5,176.6,45.5,176.6C45.5,176.6,45.5,176.6,45.5,176.6L45.5,176.6z M46.1,173c0,0.2,0,0.4,0.1,0.6
						C46.1,173.3,46.1,173.2,46.1,173L46.1,173z M19.4,172.9c0-0.2,0-0.5,0-0.8C19.4,172.4,19.4,172.7,19.4,172.9L19.4,172.9z
						 M24.4,165.5c0-0.3,0-0.7-0.1-1.1c-0.2-0.7-0.3-2.8-0.3-4.8c0,2,0.1,3.9,0.3,4.7C24.4,164.7,24.4,165.1,24.4,165.5z
						 M27.6,159.2c0-0.4-0.1-1.3-0.1-2.3C27.6,157.9,27.6,158.8,27.6,159.2C27.6,159.2,27.6,159.2,27.6,159.2z M31.9,144.2
						c0-0.6,0-1.3-0.1-1.9c0,0,0,0,0-0.1C31.9,142.9,31.9,143.5,31.9,144.2z M31.4,131.1c-0.4,0.1-0.7,0.3-0.4,1
						c0.3,1.9,0.7,4.6,0.8,7.6c-0.2,0-0.5-0.3-0.6,1c0,0.8,0.1,2.1-0.5,2.7c-0.1,0.1-0.4,0-0.6,0c0-0.5-0.2-1.1-0.8-1.1
						c-0.2,0-0.1,0.3-0.2,0.4c-0.4,0.3-0.9,0.2-1-0.2c-0.1-1.1-0.8-2.3-1.2-2.9c-0.3-0.4-0.3-1.1-0.2-1.6c-1.2,1-0.7,2.8,0,3.9
						c0.4,0.7,0.6,1.9,0,2.4c-0.1,0.1-0.5,0.1-0.6-0.1c-0.8-1-0.8-2.3-1.2-3.4c-0.4,0.5-0.6,0.7-0.5,1.9c0.2,1.3,0.8,2,0.6,3.3
						c-0.1,0.8,0.2,1.7-0.5,2.3c-0.3,0.3-0.8,0.1-1-0.1c-0.5-0.7-0.3-1.6-0.7-2.4c-0.1-0.2-0.5-0.3-0.6-0.1
						c-0.5,0.7-0.7,1.5-0.8,2.3c-0.1,0.6,0.2,1.2,0.1,1.9c0,0.2-0.2,0.4-0.3,0.5c-0.3,0.1-0.7,0.1-0.9,0c-0.3-0.2-0.5-0.7-0.6-1
						c-0.5-1.4-0.2-3,0.3-4.5c0.3-0.9-0.8-1.6-0.9-2.6c-0.1-0.7-0.4-1.5-0.3-2.2c0.1-0.4,0.2-0.8,0.2-1.2c-0.3,0.5-1,0.6-1.4,1
						c-0.4-1.1,0.4-2.1,0.1-3.2c0,0.4-0.4,0.5-0.5,0.7c-0.2-0.5-0.1-1.1-0.3-1.6c-0.3-0.5-0.3-0.1-0.4-0.8l0,0
						c1.1-17.9,7-36,16-54.1c1.2-4,13-26.3,14.7-28.6l1.4,0c-3.1,4.4-6.4,11.1-7.8,17.1c-1,1-2.9,5.1-2.9,5.1
						c-0.5-1.3-0.3-1.7-0.5-2.3c-1,1.5-0.8,3.2-0.8,4.4c-0.1,1.2-0.1,2.5-0.8,3.6c-0.3,1.3-1.2,2.3-1.5,3.2
						c-0.3,0.8-0.4,0.4-0.5,1.3c0.9,0.1,1.5-1.3,2.8-1.3c-0.3,2.8-1.2,9.9-2.4,11.4c-0.3-1.3-1-2.5-1.6-2.8l-0.2,0.2
						c1.4,6.7,1.1,10.8,1,13c0.2-0.1,1.4-1,1.6-0.5c-0.3,0.5-1.2,1-1.9,1.6c-0.5,2.3-0.9,4.9-1.3,6.4c-0.9-2.1-1.7-5.5-2.6-8.6
						c-0.1,4.3,1.3,10.1,2.1,12.8c-0.1,1.4-0.3,3.2-0.8,6.2c-0.5-1.3-1.4-2.9-3-4.3c1.4,3.6,2.7,8.3,2.9,11.3c1.2-0.8,1.6-1,2.9-1.9
						C33,129.1,31.5,131,31.4,131.1z M35.5,153.1c-0.8-3.4-1.2-7.5-1.2-11c0.3-0.9,1.3-2.5,2.1-4.3l-0.1-0.4
						c-0.8,0.4-2.2,1.8-2.5,2.5l-0.3-0.5c-0.3-1.4-0.5-4.1-0.5-6.9c-0.1-0.5,0.1-0.8,0.3-1.2c0.5-1.3,1.2-2.8,1.6-4.2
						c0.4-1.4,2.7-5.9,3.4-6.9l-0.4,0.4c-1.3,0.4-4.5,4.4-4.9,4.7l-0.3,0c0.2-3.9,1.3-12.7,2-18.1c0.8-2,6.7-8.2,5.3-7.1
						c-2.7,1-3.6,1.9-4.1,2.2l-0.8,0.3c0.8-3.8,2.5-17.7,4.3-21.4c1.3-2.3,2.6-2.9,3.6-5.4l-0.7,0.3c-0.5,0.5-2.6,2.1-3.9,3.8
						l-0.4,0.1c0.6-1.8,0.8-3.7,2.1-6.2c0.3-1,0.9-1.4,1.3-2.3c1-1.3,1.4-1.8,2.4-2.3c0.5-0.2,1.4-0.5,1.4-0.5
						c-2.7,11.2-3.7,20.4-4.5,32.9c-0.7,16.9,0.4,36.9,4.9,51.6c0,0,0,0.1-0.1,0.1c-0.3,0.5-0.7,0.7-1.2,0.9
						c-0.3,0.1-0.6-0.1-0.6-0.3c-0.3-1.3-1.3-2.3-1.6-3.6c-0.6,0-1.1,0.1-1.5-0.4c-0.8-1.2-0.7-2.6-0.8-3.9
						c-0.2,0.2-0.4,0.3-0.5,0.5c-1.3,2.1-1.8,4.3-2.4,6.6c-0.1,0.5-0.2,0.7-0.3,1.1c0,0,0,0,0,0c0-0.3,0.1-0.6,0.2-1
						C36.2,153.5,35.6,153.6,35.5,153.1z M36.5,155.1c0.1,0,0.1-0.1,0.2-0.1C36.7,155,36.6,155.1,36.5,155.1z M37.6,154.2
						c0.1,0.1,0.1,0.2,0.1,0.4c0-0.1,0-0.1-0.1-0.2C37.7,154.3,37.6,154.3,37.6,154.2z M39.9,165.7c0.1,0.6,0.2,1,0.3,1.4
						c0,0.3,0.1,0.6,0.2,0.9c-0.1-0.5-0.3-1-0.3-1.5C40,166.6,40,166.3,39.9,165.7z M54.6,185.4c0.1,0.1,0.1,0.1,0.2,0.2l-0.1-0.1
						C54.6,185.5,54.6,185.5,54.6,185.4z M60.3,175.1c0-0.1,0-0.2,0-0.3C60.4,174.9,60.4,174.9,60.3,175.1L60.3,175.1z"/>
					<g>
						<path d="M45,151.7c1,3.1,2.2,7.3,3,8.9c-0.2-1.8-2.6-8.9-2.5-9.3C45.5,150.7,45,151.7,45,151.7z"/>
					</g>
					<path d="M165.6,72.7c-0.6-2.7-1.6-4.4-2.7-7.5c-1.3-3.3-1.5-4.9-4.3-7.2c-1.6-0.8-2.4-2-1.2-3.2c1-1.4,0.6-4-1.1-5.8
						c-1.6-1.6-2.9-4.2-3.5-5.5c-0.8-1.4-1.7-2.9-2.5-3.8c-0.8-1-2.1-1.6-4.3-4.3c0,0-1.3-1.2-1.5-2.4c-1.9-2.9-7-6.9-12.9-7.3
						c-1.7-0.2-1.7-0.2-3-0.3c-2.1-0.8-8.5-1-12.9,0.3c-1.4,0.3-4.3,0.8-4.3,0.8c-1.5,0.5-3.6,0.9-6,2.3c-1.7,0.9-4.3,3-6.2,4.4
						c-2.1,2.1-6.7,5.1-9.2,6.8c-4.9,3.6-9.2,8.4-11.7,11.5c0,0-6.2,7.8-9.3,21.3c-0.2,2.1-0.8,4-0.4,6.3c0,0,2.7-6,5.3-7.8
						c0,0-0.3,1.1-0.5,2.9c0,0,1.3-2.4,1.9-2.8c0,0,1-1,2.3-2.7c0,0,2.9-3.8,3.7-4.2c-1.1,2-1.3,3.3-1.4,5.4c0.4-0.4,0.7-0.7,0.9-1
						c0,0,0.3-0.5,0.5-0.4c0.1,0.3-0.1,0.6-0.1,0.6s-4.7,11.5-4.5,20.5c0,0,1.5-3.4,2-2.8c0,0-4.3,14.3-1,22.4c0,0,0.7-2.3,1.9-3.6
						c0,0,1.8-2.8,2.5-5.1c0,0,0.3,1,0.5,2.7c0,0,1.6-2,1.9-3.4c0.3-1.1,1-2.3,1.4-3.6l0.5,0.3c0,0,3.2-3.9,4.5-7.5
						c0,0,1-0.1,0.5,2.7c0,0,2.7-2.6,2.7-6.7l0.5,0.6c2.3,2.8,2.3,7.1,2.2,9.8c-0.5,8.6-4.9,13.2-10.4,18.2L87,114
						c8.2-1.5,13.5-2.4,21.8,0c3.1,0.9,10.8,4.4,14.5,6.7c0,0,8.2,3.6,14,3.6c0,0,0.3,0.1,0.3-0.2c0,0-0.6-2.1-0.1-10.1
						c0,0,0.6-3.7,1.1-6.2c0,0,0.6-1.7,0.7-5.2c0-0.3-0.3-2.4,1.2-2.2c3.1,0.4,4.9-0.3,7.3-0.7c0,0,2.5-0.8,3.6-0.8
						c0,0,2.4,0.4,3.2,0.1c0.8-0.3,1.7-1,2.8-2c0,0,1.2-1.3,0.4-4.3c0,0-0.8-2.7-0.3-3.5c0,0,0.7-1.8,1.8-2.9c0,0,0.8-1.2-0.3-1.9
						c0,0-0.6-0.6,0.4-0.9c0,0,0.7,0.1,1.1-0.2c0,0,0.2-0.1,0.3-0.6c0-0.5,0.3-3.2-1.5-5.6c0,0,0.5,0.1,0.9,0.3c0,0,2.2,0.2,3.3-0.3
						C164.4,76.7,165.8,76,165.6,72.7z M113.4,34.8c0.9-0.1,2.9,0.5,3.6-0.4c0.4,0.1,0.9,0.2,1.3,0.2c0.3-0.1,0.6-0.3,0.9-0.1
						c0.1,0.1,0.2,0.4,0.3,0.6c0.1,0.3,0.9,0.2,1.1,0.4c0.3,0.3-0.6,0.6-0.9,0.5c-0.9-0.2-1.7-0.4-2.6-0.3c-0.1,0-0.4,0.1-0.5,0.1
						c-0.8,0-1.9,0-2.5-0.5C114,35.2,113.3,34.8,113.4,34.8z M109.6,95.7c1.5-2,4.2-4,6.9-4.7c0.8-0.2,1.3-0.5,2.7-0.3
						c0.2,0,0.5,0.1,0.8,0.5c0.3,0.4,0.4,1.1,0,1.3c-1.8,0.7-2.7,0.8-3.5,1.9c1.2-0.6,2.3-0.8,3.5-1c0.8-0.1,1.9-0.1,2.1,0.5l0-0.1
						c0.5,1.1,0.2,1.6,0.2,1.6c-0.1,1.1-0.8,1.4-2,1.6c-4.2,0.5-5.7,1.8-7.2,3.8c-0.1,0.2-0.5,0.6-0.7,0.6c-0.3-0.2-0.5-0.6-1.1-1.5
						c-0.4-0.3-0.7-0.9-0.7-1c0.7-1.6,2.8-2.7,3.5-2.9c-1.4-0.3-2.8,0.8-3.9,1.9c-0.1,0.1-0.5-0.9-0.8-1.3
						C109.3,96.9,109.2,96.3,109.6,95.7z M78.9,63.8c-0.5,0.2-0.6-0.7-0.9-0.5c-0.5,0.2-0.7,1.2-1.4,1.1c0,0,0,0,0.1,0c0,0,0,0,0,0
						c0,0-0.1,0-0.1,0c0,0,0,0,0.1,0c-0.1-0.1-0.4-0.3-0.2-0.7c0-0.1,0.4-0.9,0.7-1.4c8.1-12.7,16.5-20.2,22.9-25.8l-0.6,0
						c-13,10-22.2,23.7-24.6,27.8c-1.4,2.3-1.9,0.5-1.9,0.5c1.4-5.5,3.5-8.9,3.5-8.9c1.3-2.7,4.8-6.5,7.3-9
						c3.4-4.2,8.2-7.3,11.7-9.5c3.2-2.5,4.6-2.3,4.6-2.3c2.3-0.9,3.2,0.8,2.1,1.8c-1.2,1.4-2.8,2.3-3.8,4.1
						c-0.1,0.6-1.3,2.3-1.4,2.8c-0.1,0.6-0.7,1.6-0.9,1.8c-0.7,0.5-0.8,1-1.4,1.7c-0.5,0.6-0.6,1-0.9,1.5c-0.2-0.1-0.1-0.3-0.7-0.6
						c-0.3,2.7-1.3,3.4-2.2,4.9c-0.8,1.3-2,2.7-3.4,4.1c-0.5,0.4,0-0.6-0.4-1c-1.2,2.2-3.6,5.4-4.3,5.2c0,0-0.4-0.9-0.4-1.2
						C81.8,61.2,80.6,63,78.9,63.8z M95.5,80.3c-1.5,0.8-2.4,3.4-2.4,3.4l-0.3,0.1c0,0-0.1-2.7-1.1-4.2c-0.3,4.5-0.8,4.8-1.1,5.9
						c-0.5,1.6-0.7,1.9-1.5,3.1c0,0-0.4,0.7-0.9,0.2c-0.2-0.1-0.4,0.1-0.4,0.1c-0.1,0.1-0.3,0.2-0.4,0.4c-0.1,0.2-0.2,0.3-0.2,0.3
						s-0.2,0.3-0.4,0.3c-0.4,0-0.3,0-0.4-0.1c-0.3-0.2-0.1-0.5-0.1-0.6c0.1-0.3,0.2-0.6,0.4-1.1c0.1-0.3,0.4-1,0.1-1.1
						c-0.2-0.1-0.6,1.2-1.1,1.7c-1.2,1.4-1.4,1.3-2.7,1.8c-0.3-1-0.3-0.6-0.3-1.4c0-0.9,0-0.8,0.1-1.5c0,0,0.1-0.5,0.3-1.4
						c-0.6,0.6-1.3,0.5-1.4,0.6c0.2-0.9,0.2-1.1,0.4-2.6c0.5-3.3,1.7-4.7,1.7-4.7l-0.2-0.1l-0.3-0.3c0,0,0.1-1.1,1.2-2.6
						C84,76.6,83.6,77.2,83,78c-0.5,0.6-0.4,0.7-0.9,1.3c-0.3,0.3-0.6,0.7-1,1.2c-0.2,0.3-0.5,0.5-1,0.6c-0.8,0.3-0.6-0.4-0.1-1.2
						c0,0,0.6-0.5-0.5-0.9c0,0-0.2-0.2,0.5-2.3c0,0,1.1-3,2.5-5.6c1.1-2.1,2-3.8,2.8-5.2c0.3-0.6,1.5-1.9,2-2.4
						c0.1-0.1,0.4-0.3,0.6-0.6c0,0-1.4,0.5-1.5,0.6c-1.8,1.3-1.8,1.3-3.1,2.6c-0.5,0.4-1,0.3-0.7-0.4c0.9-2,1.2-2.5,2-3.8
						c4.7-4.9,6.4-7.3,6.4-7.3l0.9-1.3c0.3-0.1,0.5-0.2,0.5-0.2c0.2-0.4,0.7-1.1,1.1-1.6c0.4-0.6,0.6-0.1,0.6-0.1
						c-1.7,7.3-7.5,27.4-8.6,33.1c3.6-10.8,7-24.2,10.9-36.8c2.7-7.5,4.5-8,4.5-8s0.6-0.6,0.3,1.2c-0.5,1.4,0.8,7.8,1.3,10.7
						c1.2,4.3-0.1,6.2,0.1,8c0,0-0.1,1.8-0.7,0.3c-0.5-1.2-0.8-1-1.5-4.1c-0.3,2.9,0.2,6.2,0.5,8.4c0,0.6-1.1,0.3-1.7,2.9
						c-0.1,1.2-0.3,2.6-0.8,3.4l-0.3-0.1c0,0-0.7-1-2-7.5c-0.6,3.2-0.3,7.8,0.3,10.5c0.2,1.6,0.3,2.5,0.5,3.5
						C95.6,78.6,95.5,80.3,95.5,80.3z M122.3,119c-11-5.6-17.8-9.3-33.3-6.4c8.4-7.5,9.9-14.8,8.8-23.2c1.8,1.6,3.5,3,4.3,3.6
						c0.8,0.6,2.2,1.3,3,1.6c0.6,0.2,1.2,0.3,2,0.7c0.9,0.5,0.5,1.8,1.1,2.8c0.4,0.8,0.6,0.9,1.1,1.4c1.1,1.2,0.3,1.6,1.6,2.9
						c0.5,0.5,1.2,0.6,1.5,1.1c0.9,1.4,0.6,2.1,1.6,2.8c1.3,0.9,1.6,2.8,2.2,3.9c0.3,0.7,1.2,1.6,1.8,2.2c1.1,1.1,1.8,1.7,2.1,2.5
						c0.2,0.5,0.5,1,0.9,1.7c0.2,0.3,1,1.5,1.3,1.8C122.2,118.4,123.2,119.5,122.3,119z M133,121.8c-0.6,0.2-1.8-0.8-2.3,0
						c0,0-0.5-0.2-0.5-0.3c0.1-2.1-0.8-3.1-2.2-4c-1.7-1-3.7-1-5.5-1.9c-0.4-0.2-1-0.9-0.6-1.1c0.7-0.3,0.9,0,1.9,0.3
						c0.5,0.2,1,0.4,1.1,0.4c0.5,0.1,0.8,0,1-0.6c0.1-0.5-0.3-1-0.6-1.2c-0.7-0.6-1-1-1.7-1.9c-0.2-0.3-0.5-0.6-0.6-0.9
						c-0.2-0.4-0.8-0.8-1.2-1c-0.7-0.4-2.9-0.5-4-1c-0.2-0.1-0.8-1,0.2-0.9c0.8,0.1,2.1,0.4,2.6,0c0.4-0.3-0.7-0.9-1.1-1.3
						c0,0,0-0.2-0.3-0.5c0-0.3-0.6-1-0.8-1.5c-0.2-0.7-0.8-1.2-1.1-1.8c-0.3-0.7-0.1-1.1-0.2-2.2c0.3,0.1,0.5,0.2,0.7,0.6
						c0.7,1.4,0.8,2.3,1.5,3.4c-0.1,0.1,0.2,0.4,0.4,1c0.6,0.6,0.9,1.5,1.8,1.6c0.8,0.1,1.2-0.9,1.7-1.4c0.1-0.1,0.5-0.4,0.6-0.3
						c0.1,0.1,0,0.7-0.1,0.8c-0.9,1-0.9,2.5-0.2,3.5c0,0.1,0.2,0.3,0.3,0.4c0.5,1.2,1.4,2.2,2.4,3.1c0.2,0.1,0.7,0.2,0.7,0.2
						c0.4-0.5,0.3-1.2,0.6-1.6c0.1-0.1,0.3-0.6,0.7-0.3c0.1,0.9-0.1,2.8-0.8,4.5c1.5,0.7,2.2,2,3.3,3.2c0.2,0.3,0.9-0.4,1.1,0
						c0.1,0.4-0.3,0.9,0,1.3c0.3,0.4,0.9,0.4,1.2,0.9C133.1,121.5,133,121.8,133,121.8z M136.3,119.1c0,0.3-0.1,1.4-0.1,2
						c-0.2-0.2-1.7-1.7-1.9-1.9c-0.5-0.5-0.6-0.5-0.8-0.6c-1-0.7-1.1-0.7-1.1-1.7c0.1-2.1-1-4.2-2.6-5.5c-0.3-0.2-0.8-1.1-1-1.5
						c-0.4-1-0.6-0.8-0.7-1.5c0-0.5-0.6-0.8-0.8-1.5c-0.8-2.7-1.7-3.6-2.9-4.7c-0.5-0.6-1-3.2-1.4-4.4c0.7-1,0.6-1.6,0.6-2.6
						c1.8,0.7,3.9,1.3,5.7,2.1l2.3,1.1c0,0,0,1.8,0.4,3.5l0.4,1.2c0.7,2.2,2.6,4.6,3.4,6.7C136.8,112.5,136.2,115.8,136.3,119.1z
						 M164.1,75.1c-0.2,0.5-1,1.2-2.3,1.5c-0.4,0-1.2,0.1-1.7-0.3c-0.4-0.2-0.9-0.7-1.7-1.6c-0.3-0.3-1.2-0.8-2.2-0.6
						c-0.2,0.1-0.5,0.4-0.7,0.8c-0.3,0.7-1.5,0.7-2.4,0c-2-1.4-0.1-3.8,0.6-4.4c-0.3-0.2-0.4-0.1-0.9-0.1c-0.9,0.4-1,1.9-1.4,2.5
						c-0.6,0.7-1.3,2.1-1.8,3.2c-1.1,1.4-1.6,2.2-1.6,2.2l0.5,0.1c0,0,1.1-0.5,2-2c0.3-0.4,0.5-0.7,1.2-0.7c0.4,0.3,1.9,1.3,4.5,1
						c0.8,0,1.2,0.7,1.7,1.1c2.2,2,1.5,4.7,1.5,4.7c-1.2-0.1-1.7-0.1-2.7,0c-0.6,0.2-1.4,0.4-2.1,0.7c-0.6,0.2-1.7,0.1-2.5-0.1
						c-0.8,0.7-1.2,1.7-1.2,1.7l0.4,0.2c0.3-0.3,0.9-0.7,0.9-0.7c0.8-0.2,1.3,0.1,1.9,0.1c1.1,0.1,2.2,0,2.7,0.2
						c1.1,0.3,1.6,1,0.8,1.9c-0.4,0.6-1.1,1.2-1.7,2.5c-0.2,0.9-0.2,1.5,0.3,2.4c0.2,1,0.6,2,0.7,3.1c0.2,1.4-0.8,1.8-0.9,2.2
						c-0.8,0.5-0.5,0.4-1.1,0.8c-0.7,0.2-1.3,0.2-1.9-0.1c-0.9-0.3-1.4-0.5-3.3-0.6c-2.1,0.3-5.6-1-6.9-1.6c-1.4-1-4.4-1.9-6.3-1.9
						c-1.2,0-2.1-0.1-3.4-0.5c-3.7-0.8-5.8-1.4-8.4-3.8c-1.2-1.1-0.5-1.9,0.7-3.4c3.3-5.5,6.3-13.7,5.9-23.7c-0.4-3,0.7-7.2,0.7-7.2
						c0.8-2.7,1-3.3,1.4-6.6c0.3-5.6-0.4-9.3-0.9-11c-0.2,0.2-1.5-0.7-1.3-0.6c-0.3-0.3-0.6-0.5-1.3-0.4c-0.9,0.1-1.6-0.5-2.5-0.6
						c-0.4-0.1-0.7,0-1.1-0.1c-0.2,0-0.4-0.1-0.6-0.2c-0.3-0.1-0.5,0.3-0.8,0.4c-0.1,0-0.2,0-0.3,0c-0.6-0.3-1.3-0.7-1.9-0.8
						c-0.6,0-1.2,0.1-1.8,0.1c-0.4-0.1-0.6-0.6-0.6-1c1.9-0.3,3.7-0.1,5.6,0c0.3,0,0.6,0,0.8,0.2c0,0,0,0,0,0c0,0,0.1,0,0.1,0
						c0.1,0,0.1-0.1,0.2-0.1c-0.1-0.4-0.5-0.6-0.8-0.7c-1.1-0.5-2.4-0.2-3.5-0.5c-0.4-0.1-0.8-0.3-1.1-0.6c-0.2-0.1-0.3-0.2-0.1-0.4
						c0,0,0,0,0,0c0.1-0.1,0.2-0.2,0.4-0.3c0.3-0.1,0.7,0.3,1,0.1c0.1-0.1,0.3-0.3,0.5-0.3c0.7-0.1,1.4-0.3,2,0.1
						c0.2,0.1,0.5,0.2,0.7,0.4c0.3,0.3,0.8,0.1,1.2,0.2c0.1,0,0.3,0.1,0.4,0.2c0,0,0.1,0,0.2,0c0,0.1,0,0.1,0.1,0.1
						c0.1,0,0.2,0,0.3,0c0.8,0.3,1.3,0.9,2,1.3c0.5,0.3,0.8,0.8,1.2,1.3c0.2,0.2,0.3,0.3,0.4,0.5c0.1,0.1,0.2,0.1,0.2,0.2l1.9,1.1
						c0,0-0.1,0.1-0.1,0.1c0.2,0.1,0.5,0.1,0.8,0c0.8,0,1-0.1,1.2-0.1c0.7-0.2,1.3,0.2,1.8-0.1c0,0,0,0,0,0c0,0,0,0,0,0
						c0.1-1.8-2.7-2.3-4.3-3.1c-0.1-0.7-0.8-0.8-1.2-1.2c-0.2-0.2-0.1-0.6,0.3-0.7c1.2-0.1,3.1,1.3,4.7,2.2c0.4,0.2,0.7,0.5,0.9,0.9
						c0.3,0.5,0.4,1.1,0.8,1.5c0.5,0.2,1.2,0.3,1.5,0.3c1.3,0.2,3.9,0,4.6,0.3c1.3,0.5,1.8,0.9,3,2c0.2,0.2,1.2,1.3,1.4,1.5
						c0.7,0.9,1.2,1.6,1.8,2.6c0.6,1,1.5,2.6,1.7,3.9c0.2,1,1.1,1.4,1.9,2.1c0.6,0.6,1.2,1.3,1.7,2.1c0.4,0.7,0.5,1.7,0.1,2.3
						c-0.4,0.6-1.2,0.7-1.7,0.5c-0.2-0.1-0.5-0.3-0.7-0.3c-1-0.2-0.9-0.2-1.7-0.1c-0.2,0-0.5,0.3-0.6,0.3c-0.7,0.3-1.4,0.6-2,0.9
						c-0.2,0.1-0.5,0.2-0.6,0.4c-0.1,0.5,0.5,0.4,0.8,0.5c0.3,0.1,0.2,0.6,0,1c0,0-0.2,0.1-0.2,0.1c-0.6,0.4-1.1,0.7-1.4,1.4
						c0,0.1,0,0.4-0.1,0.4c-0.4,0.2-0.8,0-0.6-0.4c0-0.1-0.1-0.3-0.4-0.1c-0.1,0.1-0.3,0.5-0.4,0.6c-0.1,0.2-0.4-0.3-0.6,0
						c-0.3,0.4,0.1,0.6,0.4,0.7c-0.1,0.2-0.1,0.3-0.1,0.3c0-0.1-0.3,0.6,0.1,0.7c0.3,0,0.3,0,0.6-0.2c0.3-0.1,0.3,0.2,0.4,0.4
						c0.1,0.3-0.1,0.6,0.1,0.9c0.1,0.1,0.1,0.2,0.2,0.3c0.4,0.1,0.6,0.4,0.8,0.7c0.1,0.2,0.3,0.3,0.5,0.5c0,0,0.1,0.2,0.1,0.3
						c0.2,0.3,0.5,0.4,0.7,0.6c0.4,0.3,1.4,0.1,1.3-0.5c-0.1-0.5-0.6-0.7-1-1.1c-0.3-0.3-0.6-0.6-0.9-0.9c-0.2-0.2-0.1-0.5,0.1-0.6
						c0.3-0.2,0.7-0.1,0.8-0.1c0.4,0.2,0.6,0.9,1.1,1.1c0.4,0.2,0.3,0.2,0.8,0.2c0.2,0,0.4,0.1,0.5-0.1c0,0,0.1-0.1,0.1-0.2
						c-0.1-0.1,0.1-0.1-0.1-0.4c-0.2-0.3-0.3-0.4-0.1-0.6c0.1-0.1,0.2-0.3,0.4-0.3c0.2-0.3,0.4-0.5,0.6-0.2c0.2,0.4,0.3,0.5,0.6,0.7
						c0.1,0.1,0.4,0,0.4-0.1c0.7-0.9,0.7-2.1,1.5-2.6c0,0,0.3,0,0.3,0c0.8,0.8,1.9,1,3.3,3c0.5,0.8,1.4,2.7,1.4,3.1
						c0.5,1,0.9,2.2,1.1,2.8c0.5,1.4,0.9,2.6,1.5,3.6C164.7,72.1,164.8,73.6,164.1,75.1z M153.2,58c0,0.1,0,0.1,0,0.2
						c0,0.2-0.5,0.5-0.7,0.6c-0.7,0.6-1.4,0.5-1.4,0.5c-0.8-0.1-1-0.1-1.4-0.3c-0.2-0.1-0.1-0.2-0.1-0.3c0.1-0.3,0.3-0.4,0.5-0.8
						c0.3-0.5,0.8-0.6,1.2-1.3c0,0,0.7-0.6,0.8-0.6c0.4-0.1,0.7,0.2,0.8,0.4c0.1,0.4,0.1,0.7,0.2,1C153.2,57.8,153.2,58,153.2,58
						C153.2,57.6,153.3,58,153.2,58z"/>
					<g>
						<path class="st1" d="M39.9,165.7c0.1,0.6,0.1,0.8,0.1,0.8c0.1,0.4,0.2,0.9,0.3,1.5c-0.1-0.3-0.1-0.6-0.2-0.9
							C40.1,166.8,40,166.3,39.9,165.7z"/>
						<path class="st1" d="M40.5,101.7C41.3,89.2,42.2,80,45,68.8c0,0-0.9,0.3-1.4,0.5c-1,0.5-1.4,1-2.4,2.3c-0.4,0.9-1,1.3-1.3,2.3
							c-1.2,2.5-1.4,4.4-2.1,6.2l0.4-0.1c1.3-1.8,3.4-3.4,3.9-3.8l0.7-0.3c-1,2.5-2.3,3.1-3.6,5.4c-1.8,3.7-3.5,17.6-4.3,21.4
							l0.8-0.3c0.5-0.3,1.4-1.2,4.1-2.2c1.4-1.1-4.5,5.1-5.3,7.1c-0.8,5.4-1.9,14.2-2,18.1l0.3,0c0.4-0.3,3.7-4.2,4.9-4.7l0.4-0.4
							c-0.7,1-3,5.5-3.4,6.9c-0.5,1.4-1.1,2.9-1.6,4.2c-0.2,0.4-0.4,0.7-0.3,1.2c0,2.8,0.3,5.5,0.5,6.9l0.3,0.5
							c0.3-0.8,1.6-2.1,2.5-2.5l0.1,0.4c-0.8,1.8-1.7,3.4-2.1,4.3c0,3.4,0.4,7.6,1.2,11c0.1,0.5,0.7,0.4,1,0.2
							c-0.1,0.4-0.1,0.7-0.2,1c0,0,0,0,0,0c0.2-0.4,0.2-0.6,0.3-1.1c0.6-2.4,1.1-4.5,2.4-6.6c0.1-0.2,0.4-0.3,0.5-0.5
							c0.1,1.3-0.1,2.7,0.8,3.9c0.4,0.6,0.9,0.4,1.5,0.4c0.4,1.3,1.3,2.2,1.6,3.6c0.1,0.2,0.4,0.4,0.6,0.3c0.5-0.2,0.9-0.4,1.2-0.9
							c0,0,0-0.1,0.1-0.1C40.9,138.5,39.8,118.6,40.5,101.7z"/>
						<path class="st1" d="M37.6,154.4c0,0.1,0,0.1,0.1,0.2c0-0.1,0-0.3-0.1-0.4C37.6,154.3,37.7,154.3,37.6,154.4z"/>
						<path class="st1" d="M54.7,185.6L54.7,185.6c0,0,0-0.1-0.1-0.1C54.6,185.5,54.6,185.5,54.7,185.6z"/>
						<path class="st1" d="M46.1,173c0,0.2,0,0.4,0.1,0.6C46.1,173.3,46.1,173.1,46.1,173L46.1,173z"/>
						<polygon class="st1" points="45.5,176.6 45.5,176.6 45.5,176.6 						"/>
						<path class="st1" d="M24.1,159.6c0,2,0.1,4.1,0.3,4.8c0.1,0.4,0.1,0.7,0.1,1.1c0-0.4,0-0.7-0.1-1.2
							C24.2,163.6,24.1,161.6,24.1,159.6z"/>
						<path class="st1" d="M27.6,159.2C27.6,159.2,27.6,159.2,27.6,159.2c0-0.4-0.1-1.2-0.1-2.3C27.6,157.9,27.6,158.8,27.6,159.2z"
							/>
						<path class="st1" d="M36.8,154.9c-0.1,0.1-0.2,0.1-0.2,0.1C36.6,155.1,36.7,155,36.8,154.9z"/>
						<path class="st1" d="M19.4,172.9c0-0.2,0-0.5,0-0.8C19.4,172.4,19.4,172.7,19.4,172.9L19.4,172.9z"/>
						<path class="st1" d="M31.8,142.3c0,0.6,0.1,1.2,0.1,1.9C31.9,143.5,31.9,142.9,31.8,142.3C31.8,142.3,31.8,142.3,31.8,142.3z"
							/>
						<path class="st2" d="M30.2,130c-0.1-2.9-1.4-7.6-2.9-11.3c1.5,1.4,2.5,2.9,3,4.3c0.5-3,0.8-4.8,0.8-6.2
							c-0.8-2.7-2.2-8.5-2.1-12.8c0.9,3.2,1.7,6.6,2.6,8.6c0.4-1.5,0.8-4.2,1.3-6.4c0.8-0.5,1.6-1.1,1.9-1.6
							c-0.3-0.5-1.4,0.4-1.6,0.5c0.1-2.1,0.5-6.2-1-13l0.2-0.2c0.6,0.3,1.4,1.5,1.6,2.8c1.2-1.4,2.1-8.6,2.4-11.4
							c-1.3,0-1.9,1.4-2.8,1.3c0.1-0.9,0.2-0.5,0.5-1.3c0.3-1,1.2-1.9,1.5-3.2c0.8-1.1,0.8-2.4,0.8-3.6c0-1.2-0.1-2.9,0.8-4.4
							c0.2,0.6,0.1,1,0.5,2.3c0,0,1.9-4.2,2.9-5.1c1.4-6,4.7-12.7,7.8-17.1l-1.4,0c-1.7,2.3-13.5,24.6-14.7,28.6
							c-9,18.2-14.9,36.3-16,54.1l0,0c0.1,0.6,0.1,0.2,0.4,0.8c0.3,0.5,0.1,1.1,0.3,1.6c0.2-0.2,0.5-0.3,0.5-0.7
							c0.3,1.1-0.5,2.1-0.1,3.2c0.4-0.4,1-0.5,1.4-1c0,0.4-0.1,0.8-0.2,1.2c-0.1,0.7,0.2,1.4,0.3,2.2c0.1,0.9,1.3,1.7,0.9,2.6
							c-0.5,1.5-0.8,3.1-0.3,4.5c0.1,0.3,0.3,0.8,0.6,1c0.3,0.1,0.7,0.1,0.9,0c0.1-0.1,0.3-0.3,0.3-0.5c0.1-0.7-0.2-1.3-0.1-1.9
							c0.2-0.8,0.3-1.6,0.8-2.3c0.1-0.1,0.5-0.1,0.6,0.1c0.3,0.8,0.2,1.7,0.7,2.4c0.2,0.2,0.7,0.4,1,0.1c0.6-0.6,0.4-1.5,0.5-2.3
							c0.1-1.3-0.5-2-0.6-3.3c-0.2-1.2,0.1-1.4,0.5-1.9c0.4,1.2,0.4,2.4,1.2,3.4c0.2,0.2,0.5,0.2,0.6,0.1c0.6-0.5,0.5-1.6,0-2.4
							c-0.7-1.1-1.2-2.9,0-3.9c-0.1,0.6-0.1,1.2,0.2,1.6c0.4,0.6,1.1,1.8,1.2,2.9c0,0.4,0.6,0.6,1,0.2c0.1-0.1,0-0.3,0.2-0.4
							c0.6-0.1,0.8,0.6,0.8,1.1c0.2,0,0.5,0.1,0.6,0c0.6-0.6,0.4-1.9,0.5-2.7c0.1-1.3,0.3-1,0.6-1c-0.1-2.9-0.5-5.7-0.8-7.6
							c-0.3-0.8,0-0.9,0.4-1c0.1-0.1,1.6-2,1.6-3C31.7,129,31.4,129.2,30.2,130z"/>
						<path class="st2" d="M50.8,53.8l-1.2-0.8c-5.4,22.2-7.8,35.4-8.4,51.9c-0.6,17.5,1,34.8,5.4,50.9c0,0.1,0.1,0.1,0.1,0.2
							c0.2,0.2,0.4,0.5,0.6,0.4c0.3-0.1,0.3-0.5,0.4-0.7c0.2-1.1,0.3-2.2,0.8-3.2c0-0.1,0.3-0.3,0.4-0.4c0.4-0.5,0.5-1,0.6-1.7
							c0-0.2,0.2-0.3,0.3-0.4c0.3-0.3,0.7,0.1,0.9,0.4c0.3,0.5,0.2,1.1,0.5,1.6c0.8,1.3,1.7,2.3,2.7,3.4c0.3,0.3,0.7,0.6,1.2,0.5
							c0.1,0,0.3-0.2,0.3-0.3c0.2-0.5-0.2-1-0.4-1.4c-0.3-0.6-0.9-1.4-0.5-2c0.1-0.2,0.6,0.3,0.8,0.1c0.2-0.2,0.3-0.7,0.2-1
							c-0.1-0.4-0.3-0.8-0.5-1.2c-0.7-1.4-1.4-2.8-1.9-4.3c-0.1-0.2-0.2-0.4-0.1-0.7c0.2,0.5,0.8,0.9,1.1,1.4
							c0.1,0.1,0.2,0.2,0.3,0.3c0.3,0.5,1,0.7,1.2,1.2c0.3,0.7,0.3,2.1,1.3,2c0.3-0.1,0.8-0.4,0.6-0.9c-0.2-0.4-0.3-0.8-0.6-1.1
							c-0.3-0.3-0.7-0.5-0.8-0.8c-0.3-0.6-0.5-1.3-0.2-1.9c0.1,0.6,0.5,0.9,0.8,1.2c0.4,0.4,1.4-0.1,1.6,0.3c0-0.2-0.1-0.5-0.3-0.7
							c-2.5-3-4.9-6.2-4.8-8.6c1.7,2.5,3.2,4,4.5,4.9l0.1-0.5c-1-6.2-1-8.9-1.5-14.8c-1.5-1.2-4.9-4.9-4.3-8.1
							c1.1,2.2,2.5,3.9,3.7,4.6l0.5,0.4c-0.1-1.1,0-7.3,0-9.2c-0.8-1.2-1.9-2.5-2.6-3.9c-0.7-1.4-1.4-2.7-3.3-5
							c-1.6-2.4-4-4.5-4-4.5s0.5,0.1,0.7,0.1c0.8,0.2,1.6,0.6,3,1.5c0.5,0.2,1.2,1.2,2.4,2.3c0.8,0.8,0.9,1.4,1.3,1.6
							c0.7,0.7,1.7,1.5,2.6,2.2h0.3c0.2,0.8,0.1-5.1,0.1-5.1c-1.1-1.7-1.8-3.7-2.7-6c-0.1-0.5,0.1-0.2,0.6,0.3
							c-2.2-5.9-3.7-12.3-4.1-18.9c-0.3-0.7-0.6-1.2-0.6-1.5c0.2,0.3,0.4,0.6,0.6,0.8c-0.1-1.4-0.1-2.8-0.1-4.1c0-1.3,0-2.6,0.1-3.8
							c-0.5-0.5-1-1-1.5-1.4C48.7,63,50.8,53.8,50.8,53.8z"/>
						<path class="st1" d="M58.9,155.5L58.9,155.5C58.9,155.5,58.9,155.5,58.9,155.5L58.9,155.5z"/>
						<circle class="st2" cx="117.8" cy="74.6" r="57.9"/>
						<path class="st1" d="M59.5,149.7c0,0.1,0,0.2,0.1,0.4C59.6,149.9,59.5,149.8,59.5,149.7z"/>
						<path class="st1" d="M60.2,157.1L60.2,157.1C60.2,157.1,60.2,157.1,60.2,157.1C60.2,157.1,60.2,157.1,60.2,157.1z"/>
						<path class="st1" d="M59.2,168.7c-0.1-0.1-0.1-0.3-0.2-0.4c0.1,0.3,0.2,0.5,0.3,0.8C59.3,168.9,59.2,168.8,59.2,168.7z"/>
						<path class="st1" d="M60.2,157.2c0,0.1,0,0.4,0,0.7C60.2,157.7,60.2,157.5,60.2,157.2z"/>
						<path class="st1" d="M60.4,174.8c0,0.1,0,0.2,0,0.3l0-0.1C60.4,174.9,60.4,174.9,60.4,174.8z"/>
						<path d="M117.8,7.3c-35.3,0-64.3,27.2-67.1,61.8c4,3.9,6.9,7.9,6.5,16.4c0,0,0.3,0.2-1.5-0.3c0.9,1,1.2,1.7,1.9,3.4
							c0.3,2.7,0.5,5.1,0.3,7.5c0,0,0.2,6.1,0.4,8c0.6,0.2,0.5,1.3,0.5,2.9c11.4,20.8,33.6,34.9,59,34.9c37.2,0,67.3-30.1,67.3-67.3
							C185.1,37.4,155,7.3,117.8,7.3z M117.8,132.5c-32,0-57.9-25.9-57.9-57.9s25.9-57.9,57.9-57.9s57.9,25.9,57.9,57.9
							S149.8,132.5,117.8,132.5z"/>
						<path d="M54.2,97.9c0.9,2.3,1.6,4.3,2.7,6c0,0,0.1,5.9-0.1,5.1h-0.3c-1-0.7-1.9-1.5-2.6-2.2c-0.4-0.2-0.5-0.8-1.3-1.6
							c-1.2-1.1-1.9-2.1-2.4-2.3c-1.3-0.9-2.2-1.2-3-1.5c-0.2,0-0.7-0.1-0.7-0.1s2.5,2.1,4,4.5c1.9,2.3,2.7,3.6,3.3,5
							c0.7,1.4,1.8,2.7,2.6,3.9c0,1.9-0.1,8.2,0,9.2l-0.5-0.4c-1.2-0.8-2.6-2.4-3.7-4.6c-0.6,3.2,2.7,6.9,4.3,8.1
							c0.5,5.9,0.5,8.6,1.5,14.8l-0.1,0.5c-1.4-1-2.8-2.5-4.5-4.9c-0.1,2.4,2.3,5.6,4.8,8.6c0.2,0.2,0.2,0.4,0.3,0.7
							c-0.3-0.4-1.3,0.1-1.6-0.3c-0.4-0.4-0.8-0.7-0.8-1.2c-0.3,0.6-0.1,1.3,0.2,1.9c0.2,0.3,0.6,0.5,0.8,0.8
							c0.3,0.3,0.4,0.8,0.6,1.1c0.2,0.5-0.3,0.8-0.6,0.9c-1,0.2-1-1.3-1.3-2c-0.2-0.5-0.9-0.7-1.2-1.2c-0.1-0.1-0.2-0.2-0.3-0.3
							c-0.3-0.5-0.9-0.9-1.1-1.4c0,0.2,0,0.5,0.1,0.7c0.5,1.5,1.2,2.9,1.9,4.3c0.2,0.4,0.4,0.8,0.5,1.2c0.1,0.4,0,0.8-0.2,1
							c-0.2,0.2-0.7-0.3-0.8-0.1c-0.4,0.6,0.2,1.4,0.5,2c0.2,0.4,0.6,0.9,0.4,1.4c0,0.1-0.2,0.2-0.3,0.3c-0.5,0.1-0.9-0.2-1.2-0.5
							c-1-1.1-1.9-2.1-2.7-3.4c-0.3-0.5-0.1-1.1-0.5-1.6c-0.2-0.3-0.6-0.7-0.9-0.4c-0.1,0.1-0.2,0.2-0.3,0.4
							c-0.1,0.6-0.2,1.2-0.6,1.7c-0.1,0.1-0.3,0.3-0.4,0.4c-0.5,1-0.6,2.1-0.8,3.2c0,0.3-0.1,0.6-0.4,0.7c-0.3,0.1-0.5-0.2-0.6-0.4
							c0-0.1-0.1-0.1-0.1-0.2c-4.4-16.1-6-33.4-5.4-50.9c0.5-16.5,3-29.6,8.4-51.9l1.2,0.8c0,0-2.1,9.1-1.7,15.5
							c0.5,0.4,1,0.9,1.5,1.4c0-0.6,0.1-1.1,0.1-1.7c-0.1-0.1-0.2-0.2-0.3-0.3C50,63.5,52.3,54,52.3,54l-2.9-3l-3.4,0.6
							c-12.3,23.3-27,49.3-30.5,77.5c-1.4,7.9-0.5,28.6,1.4,37.6c0.8,2.9,1,8,1,8c-0.1,1.4-0.8,3.6-1.6,5.5c1.2-0.8,4.7-4.4,5.8-9.1
							c0.3,1,0.8,0.4,1,2.2c0.5-1.5,0.7-2.5,2.2-4.6c1.2-1.6,0.8-4.5,0.8-6.5c0,0,1,1.3,1.3,3c1.4-1.9,1.9-3.7,2-5.2
							c0.3-2.1,0.3-2.9,0.4-5.4c0-1.6,0.1-2,0.5-3.8c0.1-0.6,0.6-0.1,0.8,0.5c0.4,0.9,0.3,2.3,0.4,4c0.5-0.8,1.4-1.8,1.4-4h0.3
							c0.8,0.8,1.2,4.2,1.4,5.7c0.1,1,0,2.4-0.3,3.6c0,0,0,0.6,0.4,0.3c0.8-0.2,1.6-1.2,2.1-2.5c0.6,3.8,1.2,6.7,1.4,7.6
							c0.9,5.7,4.7,11,6.4,13.4c1.3,1.6,1.4,2.1,1.9,4c0.7-1.6,0.5-2.3,0.7-4c0.8,1.4,3.2,3.6,4.3,4.8c1.6,1.6,2.3,4.3,4.7,6.3
							c0.1-2.7,0.5-4.2,1.9-7c0.7-1.6,0.8-2.7,1-6.2c1,0.6,1.1,1.8,2.5,3.1c1.2-6.2,1.1-9.5-0.3-12.8c-0.5-1.2-1.6-1.9-1.4-3.9
							c0.3,0,1.2,1.4,1.8,2c0,0,0.3,1.6,2.3,1.6c-1-1.9-1.4-3.3-1.6-4.7c-0.4-2.9-0.1-6.2-0.1-6.2l-1.5-1l1.1-1.2l-1-7.1
							c-0.7-0.7-0.7-0.3-1.8-2.3c0.8,1,1.9,1,2.3,1c-1.2-2.6-1.2-3.7-1.6-4.9c-0.2-1-0.7-4-1-6.7c-0.5-3.7-0.8-12.1-0.8-20.3
							c-0.8-1.1-1.1-1.1-1.5-2.5c0.5-0.1,0.3-0.2,2.1,1.2c0.3-1.4,0.3-3.2,0.3-3.2c0-0.9,0-1.7,0-2.4c-1.5-2.8-2.9-5.7-4-8.7
							C54.3,97.8,54.1,97.4,54.2,97.9z M19.4,172.9L19.4,172.9c0-0.2,0-0.5,0-0.8C19.4,172.4,19.4,172.7,19.4,172.9z M24.3,164.4
							c-0.2-0.7-0.3-2.8-0.3-4.8c0,2,0.1,3.9,0.3,4.7c0.1,0.4,0.1,0.8,0.1,1.2C24.4,165.1,24.4,164.8,24.3,164.4z M27.6,159.2
							c0-0.4-0.1-1.3-0.1-2.3C27.6,157.9,27.6,158.8,27.6,159.2C27.6,159.2,27.6,159.2,27.6,159.2z M31.8,142.3
							C31.8,142.3,31.8,142.3,31.8,142.3c0.1,0.5,0.1,1.2,0.1,1.9C31.9,143.6,31.9,142.9,31.8,142.3z M31.4,131.1
							c-0.4,0.1-0.7,0.3-0.4,1c0.3,1.9,0.7,4.6,0.8,7.6c-0.2,0-0.5-0.3-0.6,1c0,0.8,0.1,2.1-0.5,2.7c-0.1,0.1-0.4,0-0.6,0
							c0-0.5-0.2-1.1-0.8-1.1c-0.2,0-0.1,0.3-0.2,0.4c-0.4,0.3-0.9,0.2-1-0.2c-0.1-1.1-0.8-2.3-1.2-2.9c-0.3-0.4-0.3-1.1-0.2-1.6
							c-1.2,1-0.7,2.8,0,3.9c0.4,0.7,0.6,1.9,0,2.4c-0.1,0.1-0.5,0.1-0.6-0.1c-0.8-1-0.8-2.3-1.2-3.4c-0.4,0.5-0.6,0.7-0.5,1.9
							c0.2,1.3,0.8,2,0.6,3.3c-0.1,0.8,0.2,1.7-0.5,2.3c-0.3,0.3-0.8,0.1-1-0.1c-0.5-0.7-0.3-1.6-0.7-2.4c-0.1-0.2-0.5-0.3-0.6-0.1
							c-0.5,0.7-0.7,1.5-0.8,2.3c-0.1,0.6,0.2,1.2,0.1,1.9c0,0.2-0.2,0.4-0.3,0.5c-0.3,0.1-0.7,0.1-0.9,0c-0.3-0.2-0.5-0.7-0.6-1
							c-0.5-1.4-0.2-3,0.3-4.5c0.3-0.9-0.8-1.6-0.9-2.6c-0.1-0.7-0.4-1.5-0.3-2.2c0.1-0.4,0.2-0.8,0.2-1.2c-0.3,0.5-1,0.6-1.4,1
							c-0.4-1.1,0.4-2.1,0.1-3.2c0,0.4-0.4,0.5-0.5,0.7c-0.2-0.5-0.1-1.1-0.3-1.6c-0.3-0.5-0.3-0.1-0.4-0.8l0,0
							c1.1-17.9,7-36,16-54.1c1.2-4,13-26.3,14.7-28.6l1.4,0c-3.1,4.4-6.4,11.1-7.8,17.1c-1,1-2.9,5.1-2.9,5.1
							c-0.5-1.3-0.3-1.7-0.5-2.3c-1,1.5-0.8,3.2-0.8,4.4c-0.1,1.2-0.1,2.5-0.8,3.6c-0.3,1.3-1.2,2.3-1.5,3.2
							c-0.3,0.8-0.4,0.4-0.5,1.3c0.9,0.1,1.5-1.3,2.8-1.3c-0.3,2.8-1.2,9.9-2.4,11.4c-0.3-1.3-1-2.5-1.6-2.8l-0.2,0.2
							c1.4,6.7,1.1,10.8,1,13c0.2-0.1,1.4-1,1.6-0.5c-0.3,0.5-1.2,1-1.9,1.6c-0.5,2.3-0.9,4.9-1.3,6.4c-0.9-2.1-1.7-5.5-2.6-8.6
							c-0.1,4.3,1.3,10.1,2.1,12.8c-0.1,1.4-0.3,3.2-0.8,6.2c-0.5-1.3-1.4-2.9-3-4.3c1.4,3.6,2.7,8.3,2.9,11.3
							c1.2-0.8,1.6-1,2.9-1.9C33,129.1,31.5,131,31.4,131.1z M36.5,155.1c0.1,0,0.1-0.1,0.2-0.1C36.7,155,36.6,155.1,36.5,155.1z
							 M37.6,154.4c0-0.1,0-0.1,0-0.2c0.1,0.1,0.1,0.2,0.1,0.4C37.7,154.5,37.7,154.5,37.6,154.4z M40,166.6c0,0,0-0.3-0.1-0.8
							c0.1,0.6,0.2,1,0.3,1.4c0,0.3,0.1,0.6,0.2,0.9C40.2,167.5,40.1,167,40,166.6z M45.3,153.4c-0.3,0.5-0.7,0.7-1.2,0.9
							c-0.3,0.1-0.6-0.1-0.6-0.3c-0.3-1.3-1.3-2.3-1.6-3.6c-0.6,0-1.1,0.1-1.5-0.4c-0.8-1.2-0.7-2.6-0.8-3.9
							c-0.2,0.2-0.4,0.3-0.5,0.5c-1.3,2.1-1.8,4.3-2.4,6.6c-0.1,0.5-0.2,0.7-0.3,1.1c0,0,0,0,0,0c0-0.3,0.1-0.6,0.2-1
							c-0.3,0.2-0.9,0.3-1-0.2c-0.8-3.4-1.2-7.5-1.2-11c0.3-0.9,1.3-2.5,2.1-4.3l-0.1-0.4c-0.8,0.4-2.2,1.8-2.5,2.5l-0.3-0.5
							c-0.3-1.4-0.5-4.1-0.5-6.9c-0.1-0.5,0.1-0.8,0.3-1.2c0.5-1.3,1.2-2.8,1.6-4.2c0.4-1.4,2.7-5.9,3.4-6.9l-0.4,0.4
							c-1.3,0.4-4.5,4.4-4.9,4.7l-0.3,0c0.2-3.9,1.3-12.7,2-18.1c0.8-2,6.7-8.2,5.3-7.1c-2.7,1-3.6,1.9-4.1,2.2l-0.8,0.3
							c0.8-3.8,2.5-17.7,4.3-21.4c1.3-2.3,2.6-2.9,3.6-5.4l-0.7,0.3c-0.5,0.5-2.6,2.1-3.9,3.8l-0.4,0.1c0.6-1.8,0.8-3.7,2.1-6.2
							c0.3-1,0.9-1.4,1.3-2.3c1-1.3,1.4-1.8,2.4-2.3c0.5-0.2,1.4-0.5,1.4-0.5c-2.7,11.2-3.7,20.4-4.5,32.9
							C39.8,118.6,40.9,138.5,45.3,153.4C45.3,153.3,45.3,153.3,45.3,153.4z M45.5,176.6C45.5,176.6,45.5,176.6,45.5,176.6
							C45.5,176.6,45.5,176.6,45.5,176.6L45.5,176.6z M46.1,173L46.1,173c0,0.2,0,0.4,0.1,0.6C46.1,173.3,46.1,173.2,46.1,173z
							 M54.7,185.6c0,0-0.1-0.1-0.1-0.1C54.6,185.5,54.7,185.6,54.7,185.6L54.7,185.6z M60.4,174.8c0,0.1,0,0.1,0,0.2l0,0.1
							C60.3,175,60.3,174.9,60.4,174.8z M60.2,158c0-0.3,0-0.6,0-0.7C60.2,157.5,60.2,157.7,60.2,158z M60.2,157.1
							C60.2,157.1,60.2,157.1,60.2,157.1C60.2,157.1,60.2,157.1,60.2,157.1L60.2,157.1z M59.6,150.1c-0.1-0.2-0.1-0.3-0.1-0.4
							C59.5,149.8,59.6,149.9,59.6,150.1z M59.2,168.7c0,0.1,0.1,0.2,0.1,0.4c-0.1-0.2-0.2-0.5-0.3-0.8
							C59,168.4,59.1,168.6,59.2,168.7z M58.9,155.5L58.9,155.5C58.9,155.5,58.9,155.5,58.9,155.5L58.9,155.5z"/>
						<path d="M50.7,79.4c0-0.2,0-0.5-0.1-0.7c-0.2-0.2-0.4-0.5-0.6-0.8C50.1,78.2,50.3,78.8,50.7,79.4z"/>
					</g>
				</g>
			</g>
		</g>
	</g>
</g>
</svg>
