<svg xmlns="http://www.w3.org/2000/svg" viewBox="0 0 24 16"><path d="M14.548 6.883l-0.617 1.664 -0.374-0.891c0 0 0.145 0.115 0.207 0.225 0 0 0.456-0.547 0.456-1.113 0-0.628-0.457-0.885-0.778-0.955 -0.15-0.155-0.506-0.393-1.282-0.393 -0.795 0-1.232 0.266-1.376 0.839l-0.503 2L9.771 6.883C8.789 4.231 3.516 4.17 2.666-0.011 1.504 2.012 2.475 3.757 2.475 3.757 1.852 5.969 3.319 7.695 3.319 7.695c-0.345 2.806 3.211 4.575 4.18 5.352C8.569 13.906 9.759 16 9.759 16s0.063-0.76 0.524-0.98c0 0 0.232-1.843 1.542-2.185 0 0-0.006-0.259 0.229-0.378l0.105-1.762 0.105 1.762c0.235 0.119 0.229 0.378 0.229 0.378 1.311 0.341 1.542 2.185 1.542 2.185C14.498 15.24 14.561 16 14.561 16s1.19-2.094 2.26-2.952c0.969-0.777 4.525-2.547 4.18-5.352 0 0 1.468-1.726 0.844-3.938 0 0 0.971-1.746-0.191-3.768C20.804 4.17 15.531 4.231 14.548 6.883zM19.679 6.101c1.763-1.184 1.96-2.063 1.96-2.063 0.466 2.005-0.907 3.57-0.907 3.57 0.343 2.787-3.105 4.456-4.076 5.234 -0.971 0.779-2.014 2.512-2.014 2.512 -0.087-0.291-0.268-0.436-0.364-0.495 -0.113-0.739-0.619-1.921-1.556-2.227 -0.018-0.088-0.072-0.222-0.213-0.324l-0.349-2.37 -0.349 2.37c-0.141 0.102-0.195 0.236-0.213 0.324 -0.937 0.306-1.443 1.488-1.556 2.227 -0.096 0.059-0.277 0.204-0.364 0.495 0 0-1.043-1.734-2.014-2.512 -0.971-0.779-4.419-2.447-4.076-5.234 0 0-1.373-1.565-0.907-3.57 0 0 0.197 0.879 1.96 2.063 0 0-3.215-2.518-2.01-5.356 1.118 3.512 6.028 3.891 6.895 6.229l0.805 2.171L11.039 6.322c0.097-0.386 0.361-0.64 1.121-0.64 0.93 0 1.141 0.374 1.141 0.374s0.656 0.055 0.656 0.712c0 0.368-0.273 0.765-0.273 0.765 -0.302-0.346-0.534-0.167-0.534-0.167l0.797 1.896 0.848-2.288c0.867-2.338 5.776-2.717 6.895-6.229C22.894 3.583 19.679 6.101 19.679 6.101z" fill="#FFF"/><path d="M13.607 7.177c0 0 .063-.228.063-.381 0-.505-.562-.463-.562-.463 0-.13-.217-.355-.947-.355-.712 0-.803.253-.838.391l-.983 3.912 1.733-2.549 1.942 2.548-1.234-3.058C12.78 7.223 13.295 6.821 13.607 7.177zM12.333 6.447l-.412-.09c0 0 .383-.081.826.125C12.468 6.72 12.333 6.447 12.333 6.447zM15.781 15.132c0-.124-.1-.224-.224-.224-.124 0-.224.1-.224.224 0 .124.1.224.224.224C15.681 15.355 15.781 15.255 15.781 15.132zM15.381 15.132c0-.097.079-.176.176-.176.097 0 .176.079.176.176 0 .097-.079.176-.176.176C15.46 15.307 15.381 15.229 15.381 15.132z" fill="#FFF"/><path d="M15.649 15.259l-0.051-0.108c0.029-0.011 0.051-0.039 0.051-0.072 0-0.042-0.034-0.076-0.076-0.076h-0.108v0.255h0.048v-0.104h0.034l0.048 0.104H15.649zM15.573 15.107h-0.06v-0.056h0.06c0.015 0 0.028 0.012 0.028 0.028C15.601 15.095 15.589 15.107 15.573 15.107z" fill="#FFF"/><path d="M5.357 6.206L4.219 3.415C3.463 2.899 2.875 2.354 2.635 1.755 2.697 3.763 3.983 5.144 5.357 6.206zM5.12 6.202l.297.729C4.256 6.26 3.192 5.548 2.864 4.73c.08 2.579 2.362 4.048 3.976 5.161L5.866 7.503C7.591 8.475 9.329 9.398 9.988 10.382 8.987 8.723 7.574 7.945 5.12 6.202zM3.829 7.99c.081 2.569 3.175 3.699 4.132 4.655l-.677-1.663c.809.478 1.547.952 2.075 1.434C7.468 9.803 4.528 9.524 3.829 7.99zM20.101 3.415l-1.138 2.792c1.374-1.062 2.66-2.444 2.722-4.451C21.445 2.354 20.857 2.899 20.101 3.415zM18.453 7.503l-.973 2.387c1.614-1.113 3.896-2.582 3.976-5.161-.328.818-1.393 1.53-2.553 2.201l.297-.729c-2.454 1.743-3.867 2.521-4.868 4.18C14.991 9.398 16.729 8.475 18.453 7.503zM20.491 7.99c-.699 1.535-3.639 1.814-5.53 4.427.529-.482 1.266-.956 2.075-1.434l-.677 1.663C17.316 11.688 20.41 10.558 20.491 7.99z" fill="#C8102E"/><path d="M11.921 6.357l0.412 0.09c0 0 0.135 0.273 0.414 0.035C12.304 6.276 11.921 6.357 11.921 6.357z" fill="#002D62"/><path d="M14.795 6.974l-0.848 2.288 -0.797-1.896c0 0 0.232-0.179 0.534 0.167 0 0 0.273-0.397 0.273-0.765 0-0.656-0.656-0.712-0.656-0.712s-0.211-0.374-1.141-0.374c-0.76 0-1.024 0.254-1.121 0.64l-0.709 2.823L9.525 6.974C8.658 4.637 3.749 4.257 2.63 0.745c-1.204 2.838 2.01 5.356 2.01 5.356 -1.763-1.184-1.96-2.063-1.96-2.063C2.215 6.044 3.588 7.608 3.588 7.608c-0.343 2.787 3.105 4.456 4.076 5.234 0.971 0.779 2.014 2.512 2.014 2.512 0.087-0.291 0.268-0.436 0.364-0.495 0.113-0.739 0.619-1.921 1.556-2.227 0.018-0.088 0.071-0.222 0.213-0.324l0.349-2.37 0.349 2.37c0.141 0.102 0.195 0.236 0.213 0.324 0.937 0.306 1.443 1.488 1.556 2.227 0.096 0.059 0.277 0.204 0.364 0.495 0 0 1.043-1.734 2.014-2.512 0.971-0.779 4.419-2.447 4.076-5.234 0 0 1.373-1.565 0.907-3.57 0 0-0.197 0.879-1.96 2.063 0 0 3.215-2.518 2.01-5.356C20.571 4.257 15.661 4.637 14.795 6.974zM2.635 1.755c0.239 0.599 0.827 1.144 1.584 1.66l1.138 2.792C3.983 5.144 2.697 3.763 2.635 1.755zM7.284 10.982l0.677 1.663c-0.956-0.956-4.051-2.086-4.132-4.655 0.699 1.535 3.639 1.814 5.53 4.427C8.831 11.934 8.093 11.46 7.284 10.982zM5.866 7.503l0.973 2.387C5.226 8.778 2.943 7.309 2.864 4.73c0.328 0.818 1.393 1.53 2.553 2.201L5.12 6.202c2.454 1.743 3.867 2.521 4.868 4.18C9.329 9.398 7.591 8.475 5.866 7.503zM12.072 7.732l-1.733 2.549 0.983-3.912c0.035-0.138 0.126-0.391 0.838-0.391 0.73 0 0.947 0.224 0.947 0.355 0 0 0.562-0.042 0.562 0.463 0 0.153-0.063 0.381-0.063 0.381 -0.312-0.356-0.827 0.046-0.827 0.046l1.234 3.058L12.072 7.732zM16.359 12.644l0.677-1.663c-0.809 0.478-1.547 0.952-2.075 1.434 1.891-2.613 4.831-2.892 5.53-4.427C20.41 10.558 17.316 11.688 16.359 12.644zM21.456 4.73c-0.08 2.579-2.362 4.048-3.976 5.161l0.973-2.387c-1.725 0.971-3.462 1.894-4.121 2.879 1.001-1.659 2.414-2.437 4.868-4.18l-0.297 0.729C20.064 6.26 21.128 5.548 21.456 4.73zM18.963 6.206l1.138-2.792c0.757-0.515 1.344-1.061 1.584-1.66C21.623 3.763 20.337 5.144 18.963 6.206z" fill="#041E42"/></svg>